/* XPM */
static char * dark_pink_moulure_base_64x64_xpm[] = {
"64 64 57 1",
" 	c #C28082",
".	c #C17F81",
"+	c #BF7D7F",
"@	c #C68184",
"#	c #C17C7F",
"$	c #C78285",
"%	c #C27D80",
"&	c #C58385",
"*	c #C38183",
"=	c #C48284",
"-	c #C47F82",
";	c #C07E80",
">	c #C68486",
",	c #C37E81",
"'	c #C58083",
")	c #C07B7E",
"!	c #BD787B",
"~	c #BC7A7C",
"{	c #BE7C7E",
"]	c #BE797C",
"^	c #BF7A7D",
"/	c #BC777A",
"(	c #BB7679",
"_	c #BD7B7D",
":	c #B97779",
"<	c #B97477",
"[	c #C0797D",
"}	c #BE777B",
"|	c #BD767A",
"1	c #BF787C",
"2	c #C37C80",
"3	c #BC7579",
"4	c #BA787A",
"5	c #BB797B",
"6	c #B87376",
"7	c #C27B7F",
"8	c #C47D81",
"9	c #C57E82",
"0	c #BA7578",
"a	c #B67174",
"b	c #C88386",
"c	c #C18182",
"d	c #BF7F80",
"e	c #B87678",
"f	c #C78587",
"g	c #B77275",
"h	c #C08081",
"i	c #C17A7E",
"j	c #C28283",
"k	c #BB7478",
"l	c #C78084",
"m	c #C67F83",
"n	c #C88688",
"o	c #C98185",
"p	c #B66F73",
"q	c #B97276",
"r	c #B87175",
"  .+@#$% &* =*.*. -@#$;*                 >,$')= *** .;.*----    ",
" **.$)@#.*.+;;;***%-)@;*                .=#--#&**.;;  .;%%,-    ",
"; *.@!%!+ +~~~{*  ]#!%{.++++++++++++++++;;!^#%&*#^!^%,)/^)%, .. ",
";. .'()!+ ;_~:~*..()!#+;+++++++++++++++++{(<!%*.[}|122[3/^%, .. ",
" *= '(%#;* ;{45*  (-%-*                 .{!6(-*;1[78987[(]%- .. ",
"  *.-0%,.== ;5~=. <''-=                 *.#0/$*.!),'-,%%/),' .. ",
".. .%6)% *  .__&. a--%=;................* '(!b*.5_.  .;;]%'@ ..*",
"  =*-6),  ..._{>*=a-'%=;                 .@(/b ._+.***  ),@@ ..*",
"  * -<#%  *; {:>-%0-.                     -(!@*.^),- ...7)* c=; ",
"  * -<#%  *; {:>-%0-.                     -(!@*.^),- ...7)* c=; ",
"  * -<#%  *; {:>-%0-.                     -(!@*.]),-  ..7)* c=; ",
"  * -<#%  *; {:>-%0-.                     -(!@*.])%-  ..7)* c=; ",
"  * -<#%  *; {:>-%0-.                     -(!@*.])%-  ..7)* c=; ",
"  * -<#%  *; {:>-%0-.                     -(!@*.])%-    7)* c=; ",
"  * -<#%  *; {:>-%0-.                     -(!@*.])%-    7)* c=; ",
"  * -<#%  *; {:>-%0-.                     -(!@*.])%-    7)* c=; ",
"  *.-<#%  *; {:>',0-.*                    -(/' .]#-,. * 7]**d*  ",
"  *.-<#%  *; {:>',0-.*                    -(/' .]#-,. * 7]**d*  ",
"  *.-<#%  *; {:>',0-.*                    -(/' .]#-,. * 7]**d*  ",
"  *.-<#%  *; {:>',0-.*                    -(/' .]#-,. * 7]**d*  ",
"  *.-<#%  *; {:>',0-.*                    -(/' .]#-,. * 7]**d*  ",
"  *.-<#%  *; {:>',0-.*                    -(/' .]#-,. * 7]**d*  ",
"  *.-<#%  *; {:>',0-.*                    -(/' .]#-,. * 7]**d*  ",
"  *.-<#%  *; {:>',0-.*                    -(/' .]#-,. * 7]**d*  ",
"  * -<#%  *.*{4>',0-.*                    -(('* ^#%-    7]**d*  ",
"  * -<#%  *.*{4>',0-.*                    -(('* ^#%-    7]**d*  ",
"  * -<#%  *.*{4>',0-.*                    -(('* ^#%-    7]**d*  ",
"  * -<#%  *.*{4>',0-.*                    -(('* ^#%-    7]**d*  ",
"  * -<#%  *.*{4>',0-.*                    -(('* ^#%-    7]**d*  ",
"  * -<#%  *.*{4>',0-.*                    -(('* ^#%-    7]**d*  ",
"  * -<#%  *.*{4>',0-.*                    -(('* ^#%-    7]**d*  ",
"  * -<#%  *.*{4>',0-.*                    -(('* ^#%-    7]**d*  ",
"  *.-<#% . .*_ef,'g%*.                    -(/@= ])%,    7]**h*  ",
"  *.-<#% . .*_ef,'g%*.                    -(/@= ])%,    7]**h*  ",
"  *.-<#% . .*_ef,'g%*.                    -(/@= ])%,    7]**h*  ",
"  *.-<#% . .*_ef,'g%*.                    -(/@= ])%,    7]**h*  ",
"  *.-<#% . .*_ef,'g%*.                    -(/@= ])%,    7]**h*  ",
"  *.-<#% . .*_ef,'g%*.                    -(/@= ])%,    7]**h*  ",
"  *.-<#% . .*_ef,'g%*.                    -(/@= ])%,    7]**h*  ",
"  *.-<#% . .*_ef,'g%*.                    -(/@= ])%,    7]**h*  ",
"hh *#}19=..* {{  ./i}'.*                . ;_{ =.!^#,,,,,[[#'=chc",
"jc*=%|31.;..+5_* ;(13%{.;;;;;;;;;;;;;;;;+;_45;*.]]]),-%)11#-= cc",
"*  '%!kk__{{4e5  ;(|k^_+++++++++{{{{{{{{_{5:4+  ](</)%)/1]),  cc",
" ;.--)}|__{{~4_. ;^1}){+;;;;;;;;++++++++{{_5_.* )!0/)%)!^^#,   c",
"* .''-,% ..**    .,28, .                ..;;.** -,%%-'--%,,  ** ",
"@'''''''   *== . .'8l,*                     ** .-------'-'*  ** ",
",,,%%%,,+;;;;;++;+-im# ;;;;;;;;;;;;;;;;;.;;;.;;;#%%%###%;..++. .",
"]^)^^^){{+;{__{+{_,}2!;{________________+{__{{{{))))#))^~{_5~)#)",
"* * *_&;* ..   *                                        #$'#, ;.",
"* * *_>;**                                              #%##- ;.",
"* * *{>.+++{{{{{{{{{{{{{{{{{{{{{{{{{{{{{{{{{{{{{{{{{{{{{#!/#' . ",
"*.* *{f.;   .  .........................................,<<%@ .*",
"*.*.*{f { *  ** ****************************************'66,@   ",
"*. .*{n*4{.;+..;........................................$g<-' *.",
"*. .*+n=_ &**== ========================================@g0'-.=;",
"*. .*+n=5.= .  ;                                        'g0-%.&+",
"**.*.;f*~+ * . *........********                        opq'-.=h",
"  ;*.;f=_; * ..         ........                        mpq--.=h",
". ;*..f=; **   *****************                        9r<--.*.",
"  ;*.;f**===***=****************                        -(/- .  ",
" *.=.;& **** **=                ***                     '^^ *   ",
" *.=.+&.   .            ************                    *.; = . ",
"  .=.;&. ..  ** ********========****                     *..* ; ",
". .=.;> * **============        ****                    hj.;* ;*"};
