/* XPM */
static char * pink_moulure_bridge_64x64_xpm[] = {
"64 64 713 2",
"  	c #E1B9B9",
". 	c #E3BBBB",
"+ 	c #E2BABA",
"@ 	c #E0B8B8",
"# 	c #E5BDBD",
"$ 	c #E4BCBC",
"% 	c #E2B8B9",
"& 	c #E6BEBE",
"* 	c #E2BCBB",
"= 	c #E3B9BA",
"- 	c #DEB6B6",
"; 	c #DDB5B5",
"> 	c #DFB7B7",
", 	c #DCB4B4",
"' 	c #D8B0B0",
") 	c #D9B1B1",
"! 	c #DBB3B3",
"~ 	c #DCB2B3",
"{ 	c #DBB1B2",
"] 	c #E0B6B7",
"^ 	c #E2B6B7",
"/ 	c #DDB3B4",
"( 	c #D6ACAD",
"_ 	c #D6AEAE",
": 	c #DAB2B2",
"< 	c #D5ADAD",
"[ 	c #D9AFB0",
"} 	c #DEB2B3",
"| 	c #E1B5B6",
"1 	c #E2B4B6",
"2 	c #DBAFB0",
"3 	c #D3A7A8",
"4 	c #D7ADAE",
"5 	c #D0A8A8",
"6 	c #D7AFAF",
"7 	c #DAB0B1",
"8 	c #E5B7B9",
"9 	c #E7B9BB",
"0 	c #EBB9BA",
"a 	c #E9B7B8",
"b 	c #E8B8B8",
"c 	c #E1B1B1",
"d 	c #D8AAAA",
"e 	c #D7ABAA",
"f 	c #DDB4B2",
"g 	c #E1B9B7",
"h 	c #E4BCBA",
"i 	c #D2AAAA",
"j 	c #E4B8B9",
"k 	c #E1B3B5",
"l 	c #EBBABD",
"m 	c #EAB9BC",
"n 	c #ECBABD",
"o 	c #EDB6B9",
"p 	c #EDB9BB",
"q 	c #ECB8BA",
"r 	c #E7B5B6",
"s 	c #E2B2B2",
"t 	c #D6AAA9",
"u 	c #DEB5B3",
"v 	c #E3BBB9",
"w 	c #D4ACAC",
"x 	c #E7BFBF",
"y 	c #D8AEAF",
"z 	c #E0B2B4",
"A 	c #EAB8BB",
"B 	c #ECB8BC",
"C 	c #EFB8BB",
"D 	c #EBB7B9",
"E 	c #D4A6A6",
"F 	c #E5BDBB",
"G 	c #CFA7A7",
"H 	c #E6BABB",
"I 	c #EDBBBE",
"J 	c #EBB7BB",
"K 	c #F0B8BB",
"L 	c #ECB5B8",
"M 	c #EEBABC",
"N 	c #EDBBBC",
"O 	c #E0B4B3",
"P 	c #E7BFBD",
"Q 	c #E0B8B6",
"R 	c #E8C0C0",
"S 	c #E7BBBC",
"T 	c #DFB1B3",
"U 	c #EDBCBF",
"V 	c #E9B7BA",
"W 	c #EDB9BD",
"X 	c #EAB6B8",
"Y 	c #D1A9A9",
"Z 	c #E0BAB9",
"` 	c #E1BBBA",
" .	c #EAC2C2",
"..	c #DBADAF",
"+.	c #EBBBBB",
"@.	c #ECBABB",
"#.	c #DFB9B8",
"$.	c #E9C1C1",
"%.	c #DDB7B6",
"&.	c #E4B8B7",
"*.	c #E0B2B2",
"=.	c #ECBCBC",
"-.	c #F0BEBD",
";.	c #EBB8B7",
">.	c #D2A6A7",
",.	c #E3BDBC",
"'.	c #E8BCBB",
").	c #E2B4B4",
"!.	c #E4B4B2",
"~.	c #E8B6B5",
"{.	c #EAB8B9",
"].	c #E7BBBA",
"^.	c #E1B3B3",
"/.	c #E6B6B6",
"(.	c #E2B0AF",
"_.	c #EFBCBB",
":.	c #E1B7B8",
"<.	c #E4BEBD",
"[.	c #E0B4B5",
"}.	c #E6B5B8",
"|.	c #C29093",
"1.	c #CA969A",
"2.	c #EABDC0",
"3.	c #E5B7BA",
"4.	c #E9B8BE",
"5.	c #B9868D",
"6.	c #E0ABB3",
"7.	c #E7B3B5",
"8.	c #D3ABAB",
"9.	c #E3BDBA",
"0.	c #E1B4B7",
"a.	c #B98A90",
"b.	c #A8767F",
"c.	c #824F58",
"d.	c #DBA6B0",
"e.	c #E8B4B6",
"f.	c #E1ADAF",
"g.	c #DEB4B5",
"h.	c #E6BFC0",
"i.	c #DDB7B4",
"j.	c #DAB5AF",
"k.	c #B18489",
"l.	c #B4858D",
"m.	c #9A676E",
"n.	c #E9B5B9",
"o.	c #ECB9B8",
"p.	c #EFB9B9",
"q.	c #E9B3B1",
"r.	c #F2BAB9",
"s.	c #ECB9B6",
"t.	c #EABDC2",
"u.	c #D5ACB2",
"v.	c #EAB3B8",
"w.	c #E6B2B6",
"x.	c #D8AAAC",
"y.	c #E6C0BF",
"z.	c #DAB2B3",
"A.	c #DCB4B2",
"B.	c #CB9EA3",
"C.	c #DFADB6",
"D.	c #CC99A0",
"E.	c #EAB5BB",
"F.	c #E8B6B9",
"G.	c #F1BDBF",
"H.	c #EEB7BA",
"I.	c #EDB7B7",
"J.	c #EFBEC2",
"K.	c #DDB0B7",
"L.	c #A47983",
"M.	c #F3BFC3",
"N.	c #EEB7BC",
"O.	c #DFABAF",
"P.	c #D4A6A8",
"Q.	c #E7BFC0",
"R.	c #E2BAB8",
"S.	c #DAB1AF",
"T.	c #E6BCBD",
"U.	c #BE8F95",
"V.	c #8E5C65",
"W.	c #9D6872",
"X.	c #E5AEB4",
"Y.	c #EDBABF",
"Z.	c #E7B3B7",
"`.	c #F2BBC0",
" +	c #F0BBC1",
".+	c #E8B7BD",
"++	c #CD9EA8",
"@+	c #946671",
"#+	c #B9888B",
"$+	c #E5B1B5",
"%+	c #F5BCC2",
"&+	c #E0B6B8",
"*+	c #E6BDBB",
"=+	c #D8AFAD",
"-+	c #DCB0B1",
";+	c #C19298",
">+	c #A06C78",
",+	c #A66E79",
"'+	c #C99099",
")+	c #E7B4B9",
"!+	c #EEBCBF",
"~+	c #F0BCC0",
"{+	c #EAB6BA",
"]+	c #E4B0B4",
"^+	c #ECB9C0",
"/+	c #DDABB4",
"(+	c #A67781",
"_+	c #CB999C",
":+	c #EAB1B7",
"<+	c #CB9499",
"[+	c #CEA0A2",
"}+	c #E1B7B9",
"|+	c #E3BAB8",
"1+	c #E8BCBD",
"2+	c #C4959D",
"3+	c #A4707C",
"4+	c #A36B78",
"5+	c #D59CA5",
"6+	c #EFBBBF",
"7+	c #D7A2A8",
"8+	c #A46F75",
"9+	c #C39194",
"0+	c #EBB4B9",
"a+	c #F3BAC0",
"b+	c #D49DA2",
"c+	c #D7A6A9",
"d+	c #E5BFBE",
"e+	c #C3949C",
"f+	c #AF7D89",
"g+	c #A97380",
"h+	c #DFA7B2",
"i+	c #EBB9B8",
"j+	c #E8B5B4",
"k+	c #EDBAB9",
"l+	c #F3BDBD",
"m+	c #ECB4B7",
"n+	c #E7AFB2",
"o+	c #EBB3B6",
"p+	c #EFB4BA",
"q+	c #ECB1B7",
"r+	c #C68F94",
"s+	c #D4A3A6",
"t+	c #DEB8B7",
"u+	c #DFB7B5",
"v+	c #DAB2B0",
"w+	c #E6BCBE",
"x+	c #C3969D",
"y+	c #A4727E",
"z+	c #986471",
"A+	c #C993A0",
"B+	c #E9B2B7",
"C+	c #E5B1B3",
"D+	c #E9B5B7",
"E+	c #E3AAB0",
"F+	c #E6ABB1",
"G+	c #E7AAB1",
"H+	c #D699A0",
"I+	c #C6878F",
"J+	c #D4A0A4",
"K+	c #E8AFB5",
"L+	c #F0B5BB",
"M+	c #CE959B",
"N+	c #D6A5A8",
"O+	c #E4BEBB",
"P+	c #D6B0AD",
"Q+	c #DDB5B6",
"R+	c #C698A2",
"S+	c #A97985",
"T+	c #A87481",
"U+	c #CC96A3",
"V+	c #EAB3B9",
"W+	c #E7B0B6",
"X+	c #D89FA8",
"Y+	c #CB8F99",
"Z+	c #C48590",
"`+	c #CC8A96",
" @	c #E3A1AD",
".@	c #D9A5A9",
"+@	c #C99096",
"@@	c #D2A1A4",
"#@	c #E3B5B5",
"$@	c #DAAEAD",
"%@	c #E3BFBF",
"&@	c #BD929B",
"*@	c #AB6E7E",
"=@	c #9D606F",
"-@	c #B8868F",
";@	c #E9B2B5",
">@	c #E3AFB1",
",@	c #E7B2B8",
"'@	c #E3AEB6",
")@	c #E8B0B9",
"!@	c #E4ABB2",
"~@	c #EAAEB6",
"{@	c #EBB0B4",
"]@	c #F0B1BA",
"^@	c #CC8D98",
"/@	c #BD7F8C",
"(@	c #C18390",
"_@	c #CB8B99",
":@	c #DC98A7",
"<@	c #F3B6BD",
"[@	c #CBA1A2",
"}@	c #EABCBE",
"|@	c #DDBBB9",
"1@	c #DFB6B4",
"2@	c #D9B5B5",
"3@	c #B98E95",
"4@	c #A66979",
"5@	c #905261",
"6@	c #D19FA8",
"7@	c #E8B1B6",
"8@	c #EEB5BB",
"9@	c #ECB1B5",
"0@	c #EFB4B8",
"a@	c #EEB1B6",
"b@	c #EAADB2",
"c@	c #E8ABB0",
"d@	c #E0ACB0",
"e@	c #E9ADB5",
"f@	c #DA96A3",
"g@	c #C57E8E",
"h@	c #BD788A",
"i@	c #C27E8D",
"j@	c #CF8B9A",
"k@	c #C88191",
"l@	c #CF939B",
"m@	c #E3B0B5",
"n@	c #E9AAB3",
"o@	c #C2838C",
"p@	c #CEA4A5",
"q@	c #DEBCBA",
"r@	c #E0BCBC",
"s@	c #DFBCBA",
"t@	c #C89DA4",
"u@	c #AF7282",
"v@	c #965768",
"w@	c #D09EA9",
"x@	c #E4ADB3",
"y@	c #E7AEB4",
"z@	c #ECAFB4",
"A@	c #E8AAAD",
"B@	c #ECAEB1",
"C@	c #E7A9AC",
"D@	c #E9AEB4",
"E@	c #E7B4BB",
"F@	c #E2A6B2",
"G@	c #CB8494",
"H@	c #C77A8E",
"I@	c #C27589",
"J@	c #C07589",
"K@	c #C87E8F",
"L@	c #C47A8B",
"M@	c #CF919E",
"N@	c #C38E98",
"O@	c #D1929D",
"P@	c #D08E9A",
"Q@	c #D3A6A9",
"R@	c #E4C3BE",
"S@	c #DEBCBB",
"T@	c #D6ADAB",
"U@	c #E1BEBC",
"V@	c #BB8E95",
"W@	c #9B5E70",
"X@	c #A6697B",
"Y@	c #C999A5",
"Z@	c #EBB6BE",
"`@	c #DFA8AE",
" #	c #EEB3B7",
".#	c #DFAAB2",
"+#	c #E5B3BE",
"@#	c #BF919E",
"##	c #C5939F",
"$#	c #BE8493",
"%#	c #BF778B",
"&#	c #C4758A",
"*#	c #C07186",
"=#	c #C87B8D",
"-#	c #C27889",
";#	c #CD8394",
">#	c #C9899A",
",#	c #A36A79",
"'#	c #B47182",
")#	c #C3818F",
"!#	c #CB9EA1",
"~#	c #E5B7B7",
"{#	c #DDBCB7",
"]#	c #DDBBBA",
"^#	c #E4BABB",
"/#	c #9D6072",
"(#	c #A4697B",
"_#	c #B0828F",
":#	c #AF7E84",
"<#	c #E4B3B9",
"[#	c #E7B5BE",
"}#	c #D6A7B1",
"|#	c #D4A8B5",
"1#	c #A77E8E",
"2#	c #8B657A",
"3#	c #8F6C82",
"4#	c #A06D7C",
"5#	c #B27887",
"6#	c #C0788C",
"7#	c #C4778B",
"8#	c #C17488",
"9#	c #CD8495",
"0#	c #C78090",
"a#	c #C27B8B",
"b#	c #C58196",
"c#	c #B27585",
"d#	c #BC7789",
"e#	c #B57180",
"f#	c #D3A4AA",
"g#	c #DFBEB9",
"h#	c #DEBABC",
"i#	c #DEB2AF",
"j#	c #C99CA3",
"k#	c #AE7385",
"l#	c #955E71",
"m#	c #956B79",
"n#	c #9A707A",
"o#	c #A47C87",
"p#	c #9B7584",
"q#	c #926D7F",
"r#	c #936D82",
"s#	c #9A728A",
"t#	c #A37991",
"u#	c #A67A93",
"v#	c #B17688",
"w#	c #C68697",
"x#	c #BF788A",
"y#	c #C87F92",
"z#	c #BF7B8A",
"A#	c #BB7486",
"B#	c #C98195",
"C#	c #B47586",
"D#	c #C98294",
"E#	c #BF7888",
"F#	c #D1A3A6",
"G#	c #E6BAB9",
"H#	c #DABBB6",
"I#	c #DEB7BA",
"J#	c #E0B3B0",
"K#	c #DAB4B3",
"L#	c #B78C93",
"M#	c #9D6475",
"N#	c #976276",
"O#	c #96707F",
"P#	c #937181",
"Q#	c #947386",
"R#	c #92728A",
"S#	c #92708B",
"T#	c #906581",
"U#	c #AE7993",
"V#	c #BA7C91",
"W#	c #BE798C",
"X#	c #C1798D",
"Y#	c #C67B8F",
"Z#	c #BA6D7F",
"`#	c #C57E8C",
" $	c #B4707F",
".$	c #C87D91",
"+$	c #CF8699",
"@$	c #B37584",
"#$	c #CE8596",
"$$	c #D08997",
"%$	c #D2A4A7",
"&$	c #EBBFC0",
"*$	c #DFC0BB",
"=$	c #E5BCC0",
"-$	c #E5B4B7",
";$	c #D8ABA8",
">$	c #9A6474",
",$	c #AD7A8D",
"'$	c #8D6977",
")$	c #8C6F85",
"!$	c #876B84",
"~$	c #876A88",
"{$	c #8F6C8D",
"]$	c #8F617E",
"^$	c #BC7C94",
"/$	c #C37281",
"($	c #C66A75",
"_$	c #C27086",
":$	c #C57286",
"<$	c #C9788B",
"[$	c #C17786",
"}$	c #C27B89",
"|$	c #BB7786",
"1$	c #C77E91",
"2$	c #CD7E93",
"3$	c #BC7384",
"4$	c #B87886",
"5$	c #C37B89",
"6$	c #BE7785",
"7$	c #CC9EA1",
"8$	c #DCBDB8",
"9$	c #DFB5B6",
"0$	c #DBB2AE",
"a$	c #C899A1",
"b$	c #AB7686",
"c$	c #976073",
"d$	c #A86F82",
"e$	c #856C7F",
"f$	c #7E6680",
"g$	c #846785",
"h$	c #9B6D87",
"i$	c #C38393",
"j$	c #CF868F",
"k$	c #CD8791",
"l$	c #C18493",
"m$	c #BF7488",
"n$	c #C57A8E",
"o$	c #C37A8D",
"p$	c #C47B8E",
"q$	c #C2798C",
"r$	c #CA8194",
"s$	c #C17D8C",
"t$	c #BE7387",
"u$	c #C1768A",
"v$	c #BF7D8B",
"w$	c #D6A4A7",
"x$	c #D8B0AE",
"y$	c #E5BBBD",
"z$	c #E4BCBD",
"A$	c #B98A92",
"B$	c #A36E7E",
"C$	c #9B6575",
"D$	c #AC7384",
"E$	c #846273",
"F$	c #7C5C73",
"G$	c #8A6682",
"H$	c #A8768F",
"I$	c #C47F91",
"J$	c #C77B87",
"K$	c #C9838E",
"L$	c #CD8E9F",
"M$	c #BD7286",
"N$	c #C2778B",
"O$	c #CB8796",
"P$	c #C4798D",
"Q$	c #BE7C8A",
"R$	c #D7A5A8",
"S$	c #E2B8BA",
"T$	c #E0B7BB",
"U$	c #C2939B",
"V$	c #B07C89",
"W$	c #AC7686",
"X$	c #B57C8B",
"Y$	c #AA7B8B",
"Z$	c #96697E",
"`$	c #97657E",
" %	c #B2768F",
".%	c #C2798A",
"+%	c #C67A87",
"@%	c #BE7684",
"#%	c #B47485",
"$%	c #C98594",
"%%	c #DDB5B3",
"&%	c #E3BABE",
"*%	c #E6BEBF",
"=%	c #BB8C94",
"-%	c #A5717E",
";%	c #AE7886",
">%	c #C9919E",
",%	c #C08392",
"'%	c #B87D8F",
")%	c #B77990",
"!%	c #BF7B90",
"~%	c #BE7485",
"{%	c #CF8191",
"]%	c #CA8192",
"^%	c #BB7689",
"/%	c #C57C8F",
"(%	c #BC7887",
"_%	c #D4A2A5",
":%	c #E4BBBF",
"<%	c #E2BABB",
"[%	c #CFA6A4",
"}%	c #D3A4AC",
"|%	c #B6828F",
"1%	c #A87280",
"2%	c #B47C89",
"3%	c #BB7688",
"4%	c #BE768A",
"5%	c #BD7487",
"6%	c #B6697B",
"7%	c #CA7D8F",
"8%	c #CA7F93",
"9%	c #BA7286",
"0%	c #C0778A",
"a%	c #C67D90",
"b%	c #D3A1A4",
"c%	c #DFB6BA",
"d%	c #D9B0AE",
"e%	c #BE8F97",
"f%	c #9C6875",
"g%	c #9F6979",
"h%	c #B9808F",
"i%	c #BA7587",
"j%	c #C37C8E",
"k%	c #C77C90",
"l%	c #C57C8D",
"m%	c #BB7084",
"n%	c #BE7588",
"o%	c #CA8695",
"p%	c #BB7987",
"q%	c #E7C1C0",
"r%	c #E0B8B9",
"s%	c #DAB1AD",
"t%	c #B78890",
"u%	c #976272",
"v%	c #976171",
"w%	c #965D6E",
"x%	c #AB677C",
"y%	c #D08697",
"z%	c #C97F90",
"A%	c #B97083",
"B%	c #C07788",
"C%	c #C67C8B",
"D%	c #BF7689",
"E%	c #D5A3A6",
"F%	c #E3B9BB",
"G%	c #D8AFAB",
"H%	c #A87383",
"I%	c #B17A8D",
"J%	c #9F6679",
"K%	c #B06F85",
"L%	c #BD788B",
"M%	c #BE7586",
"N%	c #C27B8D",
"O%	c #C17A8C",
"P%	c #C47C8A",
"Q%	c #BF7681",
"R%	c #CD8296",
"S%	c #C3788C",
"T%	c #C1788B",
"U%	c #BD7B89",
"V%	c #DEB1B4",
"W%	c #C6979D",
"X%	c #AE7C85",
"Y%	c #B07E89",
"Z%	c #BA8693",
"`%	c #C17889",
" &	c #C37A8B",
".&	c #BA7182",
"+&	c #BF7687",
"@&	c #C97E93",
"#&	c #B77583",
"$&	c #BC808A",
"%&	c #D3A0A5",
"&&	c #E1BBB8",
"*&	c #E0BDB9",
"=&	c #CBA3A3",
"-&	c #D9AFB1",
";&	c #DBAEB3",
">&	c #C29099",
",&	c #D094A0",
"'&	c #D195A1",
")&	c #D397A3",
"!&	c #D599A5",
"~&	c #CE929E",
"{&	c #D498A4",
"]&	c #D296A2",
"^&	c #D399A5",
"/&	c #CF9AA2",
"(&	c #D4A1A8",
"_&	c #DEB0B3",
":&	c #D3A9AA",
"<&	c #D5ABAC",
"[&	c #D8AEB0",
"}&	c #DEB4B6",
"|&	c #DAB0B2",
"1&	c #DBB1B3",
"2&	c #DCB2B4",
"3&	c #DDB3B5",
"4&	c #DCB4B5",
"5&	c #DBB3B4",
"6&	c #E3B7B8",
"7&	c #E2BFBD",
"8&	c #E3C0BE",
"9&	c #DEBDB8",
"0&	c #DCB9B5",
"a&	c #DBB8B4",
"b&	c #D9B3B2",
"c&	c #E5BBBC",
"d&	c #E7BDBE",
"e&	c #DEB6B4",
"f&	c #D3ADAA",
"g&	c #DCB6B3",
"h&	c #DBB5B4",
"i&	c #D9B1AF",
"j&	c #E6BEBC",
"k&	c #E2B6B5",
"l&	c #E1B8B6",
"m&	c #E9BFC0",
"n&	c #DBAEB1",
"o&	c #D7B1B0",
"p&	c #DCB6B5",
"q&	c #D6B0AF",
"r&	c #D2B0AF",
"s&	c #D8B6B5",
"t&	c #D6B2B2",
"u&	c #D5AEAF",
"v&	c #CEA6A6",
"w&	c #C79F9F",
"x&	c #C49C9C",
"y&	c #C39B9B",
"z&	c #C49A9B",
"A&	c #C59B9C",
"B&	c #C79D9E",
"C&	c #C99FA0",
"D&	c #D1A7A8",
"  . +   + @ @ # .   . .   . $ @ % .   . # + & * = = = = = = = = = = = = = = = = .   &   $ @ $ @ @ . . @ & - + + @ .   + $   . ; ",
"  +   + # + @ + > > @   > @ +   . $ @ @   > $ + $ $ $ $ $ $ $ $ $ $ $ $ $ $ $ $ .   . ; + @ # . .   > , $ -   @ > + >     @ . @ ",
"+ .   + . - ' ) ; - > - , ! ; @ . . ! ~ { { ] ] , , , , , , , , , , , , , , , , ^ ] / ( , ;   . . ! ) _ > , - , ' , ! @ @ > . + ",
"+ .   +   : < _ > @ @ - : _ ' > + + [ { [ } | ^ | | | | | | | | | | | | | | | | 1 1 2 3 4 : - + + _ ' _ ; , ; , 5 _ 6 . + @     ",
">   + . + ! ) -   . + > , < _   + . 7 ] } 8 9 9 0 0 0 0 0 0 0 0 0 0 0 0 0 0 0 0 a b c d e f g h   < - ;   @   @ i 6 _ # +   @ + ",
"> + + .   ) ' >   $ + @ > 6 6 #   . [ j k l m n o o o o o o o o o o o o o o o o p q r s t u h v @ i     . + + + , ; _ & @   > . ",
"+ + + . @ 6 w ! @ $     + ) ' x   . y j z l A B C C C C C C C C C C C C C C C C C o D b E f F g > G + + + . @   + @ _ x   + - . ",
"+     $ $ ! 6 , @ $ @ @ . ) 6 x * # [ H z I J B 0 0 0 0 0 0 0 0 0 0 0 0 0 0 0 0 K L M N E O P Q + G + . . $   @ @ > w R + . ;   ",
"+ +   . + : 6 , + . +   . ! < x * + ( S T U V W q q q q q q q q M q X q p D D q 0 p o p 3 - . . % Y + +   Z ` Z @ @ _  .  @     ",
"+ +   + + : 6 , + . +   . ! < x * x { j ..+.@.D q q q q q q q q q X D q p D D q 0 p o p 3 - . . % i + .   Z Z #.@ @ _ $.  @     ",
"+     + + : 6 , + . +   . ! < x %.  4 &.*.=.-.;.q q q q q q q q D D q p q D D q 0 p o p >.- . . = i . .   Z Z #.  @ < $.  @     ",
"+     + + : _ , + . +   . ! < x ,.+ y '.).!.~.;.q q q q q q q q q p p p D X D q {.p o q >.; . . % i + .   Z Z #.  @ < $.        ",
"    @ + + : _ , + . +   . ! < x * . 7 ].^./.(._.q q q q q q q q p p p q D q q p {.p o q >.; . + :.Y + + + ` ` Z + @ w R     +   ",
"    @ +   : _ , + . +   . ! < x <.$ ( [.T }.|.1.q q q q q q q q q q q D q p p q {.p o q >.; . + :.Y   + + ` ` ` + @ w R @   +   ",
"    @ +   : _ ! + . +   . ! < x ` @ [ 2.3.4.5.6.q q q q q q q q q q D D q M D 7.{.p o q >.; . + :.Y + + + ` ` Z . @ 8.x @   +   ",
"    @ +   : _ ! + . +   . ! < x 9.  ~ 0.a.b.c.d.q q q q q q q q p p q D p p e.f.{.p o q >.; . + % i + .   Z ` Z . @ 8.x @   +   ",
"    @ +   { y g.+ + +   $ ! < x h.i.j.+ k.l.m.n.o.o.o.o.o.o.o.o.q p.q.r.s./.t.u.9 I v.w.x.6 y.* > Y + .     + . + @ w R     +   ",
"    @ +   { y g.+ + +   $ ! < x z.h A.g.B.C.D.E.p p p p p p p p F.G.H.I.q J.K.L.1 M.N.O.P.) <.%.> Y . .     + + + @ w R     +   ",
"    @ +   { y g.+ + +   $ ! < x Q.R.S.T.U.V.W.X.q q q q q q q q Y.E.Z.`. +.+++@+#+$+%+O.P.: y.,.@ i . .   @   + + @ w R     +   ",
"    @ +   { y g.+ + +   $ ! < x &+*+=+-+;+>+,+'+0 0 0 0 0 0 0 0 )+!+~+{+]+^+/+(+_+J :+<+[+; <.%.@ i . .   @     + @ w R     +   ",
"    @ +   { y g.+ + +   $ ! < x }+|+f 1+2+3+4+5+p p p p p p p p N {.;.D H.6+7+8+9+0+a+b+c+, ,.d+@ i . .   @     + @ w R     +   ",
"    @ +   { y g.+ + +   $ ! < x # g S.% e+f+g+h+J J J J J J J J i+j+k+l+m+n+o+p+n.%+q+r+s+; Z t+@ i . .   @   + + @ w R     +   ",
"    @ +   { y g.+ + +   $ ! < x @ u+v+w+x+y+z+A+B+B+B+B+B+B+B+B+C+D+B+E+F+G+H+I+J+K+L+M+N+/ ,.<.> Y . .     + + + @ w R     +   ",
"    @ +   { y g.+ + +   $ ! < x <.O+P+Q+R+S+T+U+K+K+K+K+K+K+K+K+X.V+W+X+Y+Z+`+ @.@K+p++@@@~ * Z > Y + .     + . + @ w R     +   ",
"@ +       ! 6 ! + + +   $ ! < x & #@$@%@&@*@=@-@;@>@B ,@'@)@!@~@D+{@]@^@/@(@_@:@F+A <@I+[@! }@|@  i + + + + + + + @ w R     +   ",
"@ +       ! 6 ! + + +   $ ! < x Z &.1@2@3@4@5@6@7@7@8@9@0@a@b@c@d@e@f@g@h@i@j@k@l@m@n@o@p@> z q@  i + + + + + + + @ w R     +   ",
"@ +       ! 6 ! + + +   $ ! < x r@&.f s@t@u@v@w@x@y@z@A@B@C@a@D@E@F@G@H@I@J@K@L@M@N@O@P@Q@> 8 R@  i + + + + + + + @ w R     +   ",
"@ +       ! 6 ! + + +   $ ! < x S@= T@U@V@W@X@Y@Z@`@y@ #y@.#+#@###$#%#&#*#=#-#;#>#,#'#)#!#' ~#{#  i + + + + + + + @ w R     +   ",
"@ +       ! 6 ! + + +   $ ! < x ]#^#T@` V@/#(#_#:#<#[#}#|#1#2#3#4#5#6#7#8#9#0#a#b#c#d#e#f#@ ].g#  i + + + + + + + @ w R     +   ",
"@ +       ! 6 ! + + +   $ ! < x h#H i#%.j#k#l#m#n#o#p#q#r#s#t#u#v#w#x#y#g@z#G@A#B#C#D#E#F#[ G#H#  i + + + + + + + @ w R     +   ",
"@ +       ! 6 ! + + +   $ ! < x I#9 J#K#L#M#N#O#P#Q#R#S#T#U#V#W#X#Y#Z#L@`# $D#.$+$@$#$$$%${ &$*$  i + + + + + + + @ w R     +   ",
"@ +       ! 6 ! + + +   $ ! < x =$-$;$P 3@>$,$'$)$!$~${$]$^$/$($_$:$<$[$}$|$1$2$3$4$5$6$7$] | 8$  i + + + + + + + @ w R     +   ",
"+ @ +     / 4 9$+ . .   . : < R   R.0$:.a$b$c$d$e$f$g$h$i$j$k$l$m$n$J@o$p$q$r$y#s$t$u$v$w$x$,.y$+ Y   . . + + + + > 8.R   @     ",
"+ @ +     / 4 9$+ . .   . : < R z$R.0$~ A$B$C$D$E$F$G$H$I$J$K$L$M$N$m$q$p$o$r$y#O$P$N$Q$R$A.d+S$+ Y   . . + + + + > 8.R   @     ",
"+ @ +     / 4 9$+ . .   . : < R T$- S.= U$V$W$X$Y$Z$`$ %.%+%@%#%t$J@t$q$p$p$y#y#$%n$P$Q$w$%%y.}++ Y   . . + + + + > 8.R   @     ",
"+ @ +     / 4 9$+ . .   . : < R &%*%f ] =%-%;%>%,%'%)%!%~%{%]%^%J@m$m$q$p$/%1$1$(%J@n$v$_%v+d+S$+ Y   . . + + + + > 8.R   @     ",
"+ @ +     / 4 9$+ . .   . : < R :%<%[%% }%|%1%2%e#3%4%5%6%7%8%9%u$M$t$0%p$a%/%1$(%J@P$Q$b%v+d+S$+ Y   . . + + + + > 8.R   @     ",
"+ @ +     / 4 9$+ . .   . : < R c%R d%] e%f%g%h%i%j%8%k%m$Y#l%3$N$m%M$n%o$a%p$y#o%P$u$p%_%%%q%S$+ Y   . . + + + + > 8.R   @     ",
"+ @ +     / 4 9$+ . .   . : < R r%h s%= t%u%v%w%x%%#y%z%n%A%B%C%k%M$m$D%o$1$o$y#j@n$J@p%E%%%y.F%+ Y   . . + + + + > 8.R   @     ",
"+ @ +     / 4 9$+ . .   . : < R & Q G%^#t%H%I%J%K%L%y#M%N%O%P%Q%R%N$S%T%p$y#q$1$o%N$J@U%E%v+d+y$+ Y   . . + + + + > 8.R   @     ",
"  +     > 7 [ 9$@ $ # . > ' : $ 9.F ( V%W%X%Y%Z%B%B%B%B%`%`%`%`%`% &M%B%.&`%+&B%@&o$#&$&%&^ &&*&> =&x +   @ &   > ; : $   $ > + ",
"  . + . + ~ y / > > - > @ ! !   v Q , -&;&;+a$>&,&,&,&,&,&'&'&'&)&!&'&)&~&{&'&]&^&^&/&(&_&H |+Q # 5 + , > > . > , : ' + @ + -   ",
"- > > @ @ [ :&<&> @ > > > : ) > + $ _ [ y [&}&[&|&1&1&1&1&1&2&2&2&}&2&3&|&3&1&2&4&5&5&7 y ~ 6&j + G 6 5 : ; > - ' ' ' @ @ + > + ",
"+ +   + + / ( <&' >   > ! < _ > @ # _ ' G v+R.F 7&7&7&7&7&8&8&8&U@7&7&7&U@7&U@U@9&0&a&b&8.7 c&d&. _ _ 5 , > > @ _ _ ' >   +   + ",
"+ + @   . ] { 7 w ! > - ! ' : +   @ . v+e&f&i.g&K#K#K#K#K#K#K#K#K#b&h&K#h&b&K#b&A.v+%%%%i&- $   . ; : < ; , : , : : ; > +       ",
"@   > @ . = ] :.@ + @   $ . + $ $   + . j&g Q u+^#^#^#^#^#^#^#^#c&= c&= T.% ^#^#~#k&k&l&@ . ,.#.+ + @ -   > - > +   .   $   +   ",
"  . +   $ c&= ^#$ $   @ $ $ @ @ + + , $ - m&:.^#+ + +           + > + > $ -     d&& + > + $ . .   . . $ $ . # # + @ . > + ; @ - ",
") , ! ) ! { [ 7 6 ! ) 6 ) ) ' ! : :   y 2&|&1&n&b&b&b&b&b&b&b&b&h&o&K#o&p&q&K#K#r&s&t&u&b&) 4 [ ) : ' : 6 6 : ' : ) ; 6 , 6 , : ",
"> > > > @ @ @ @ @ @       > > > > > > > > > > > > > > > > > > > @ @ @ @ @ @ @ @ > > > > > > > > > > > > > > > > @ ; - > - ;   ; ",
"+ +   + + + + + + + . . $ . . . . . . . . . . . . . . . . . . . . . . . . . . . . . . . . . . . . . . . . . . . .   @ . + @ . @ ",
"+               @ @ @ @       @ @ @ @ @ @ @ @ @ @ @ @ @ @ @ @ @ @ @ @ @ @ @ @ @ > > > > > > > > @ @ @ @ @ @ @ @ @ @ :     @ + @ ",
"@ @ @ @ > @ @   - > > - - > - , ; ; ; ; ; ; ; ; ; ; ; ; ; ; ; ; ; ; ; ; ; ; ; ; , , , , , , , , ; ; ; ; ; ; ; ; ; ! v&: > >   > ",
"@         + . # @ + . + + . + @                                                                                 + ; w&6 @ + +   ",
"@   + +   + # x !   $ . . $ # . $ $ $ $ $ $ $ $ $ $ $ $ $ $ $ $ . . . . . . . . . . . . . . . . . . . . . . . . & + x&' + .     ",
"@   +   @   $ & _ - $ .   + . . + + + + + + + + + + + + + + + +                                 + + + + + + + + # $ y&) .   >   ",
"  + . +     $ & 6 @ x # + + $ $ . . . . . . . . . . . . . . . . + + + + + + + + + + + + + + + + . . . . . . . . + $ x&, $   > . ",
"+ + + + + . $ & _ > # # . $ $ + . . . . . . . . . . . . . . . . . . . . + + + + + + + + + + + + + + + + + +     d++ z&g.% :.+ #.",
"          + $ & 6 > # . + + . + . . . . . . . . . . . . . . . . . . . . . . . . + + + + + + + + + + + + + + +   d++ A&/ % % + #.",
"      @ @ + $ & !   # . + + . + $ $ $ $ $ $ $ $ $ $ $ $ $ $ $ $ $ $ $ $ $ . . . . . . . . . . . + + + + + + + + ,.> B&{ :.% + #.",
"          + # x @ . # $ . $ $ $ # # # # # # # # # # # # # # # # $ $ $ $ . . . . . . . . . . . . + + + + + + + + Z ; C&7 :.% + Z ",
"      @ @ + $ & + $ # . . $ $ $ $ $ $ $ $ $ $ $ $ $ $ $ $ $ $ $ . . . . . . . . + + + + + + + + . + + + + + + + Z > D&~ % = + Z ",
"@ @ @ @ @   + . . . . + + . . . . . . . . . . . . . . . . . . . . . . . . . . . + + + + + + + + . . . + + + + + ,.. { ] ^#%   Z ",
"  + + +     + . . + + + . . . . . . . . . . . . . . . . . . . . $ $ $ $ . . . . . . . . . . . . . . . + + + + + * $ :.% c&% @ Z ",
". $ $ $ $ . . . $ . + . $ $ $ $ $ $ $ $ $ $ $ $ $ $ $ $ $ $ $ $ $ $ $ $ $ $ $ $ . . . . . . . . . . . . + + + + t++ = % c&:.@ ` "};
