/* XPM */
static char * pink_moulure_telecabine_64x64_xpm[] = {
"64 64 452 2",
"  	c #E2BABA",
". 	c #E1B9B9",
"+ 	c #E1BAB9",
"@ 	c #E0BAB9",
"# 	c #E3BCBC",
"$ 	c #E3BBBB",
"% 	c #E0B8B8",
"& 	c #E2B9B9",
"* 	c #E4BCBC",
"= 	c #E3BCBB",
"- 	c #E0B7B7",
"; 	c #E2BBBA",
"> 	c #E2BBBB",
", 	c #DBB3B2",
"' 	c #DCB2B2",
") 	c #D9AEAF",
"! 	c #DDB4B4",
"~ 	c #DEB4B5",
"{ 	c #DCB3B2",
"] 	c #DBB1B1",
"^ 	c #DBB1B2",
"/ 	c #DCB2B3",
"( 	c #D7ACAD",
"_ 	c #DFB7B7",
": 	c #DDB5B5",
"< 	c #DDB4B5",
"[ 	c #DCB3B4",
"} 	c #DCB4B4",
"| 	c #DDB3B4",
"1 	c #DAB0AF",
"2 	c #DBB1B0",
"3 	c #DAB0B1",
"4 	c #DEB6B6",
"5 	c #DBB2B1",
"6 	c #D8AEAE",
"7 	c #DDB3B3",
"8 	c #E3BBBA",
"9 	c #D7ADAC",
"0 	c #D6ABAC",
"a 	c #DEB5B4",
"b 	c #D4A8A8",
"c 	c #DCB4B3",
"d 	c #DAB1B1",
"e 	c #D9AFAF",
"f 	c #D6ACAC",
"g 	c #DFB6B7",
"h 	c #E1BCBD",
"i 	c #E1BEBF",
"j 	c #E1BDBD",
"k 	c #E0BCBD",
"l 	c #E1BEBE",
"m 	c #E1BDBE",
"n 	c #E0BCBC",
"o 	c #E0BABA",
"p 	c #E0B9BA",
"q 	c #DFBABA",
"r 	c #DFB9BA",
"s 	c #DAB2B3",
"t 	c #D4A8A7",
"u 	c #DCB3B1",
"v 	c #D6ACAB",
"w 	c #D8ACAD",
"x 	c #D3A7A7",
"y 	c #D9AFAE",
"z 	c #D8AFAE",
"A 	c #D6ABAA",
"B 	c #DFB7B6",
"C 	c #D4A9A8",
"D 	c #E1B8B9",
"E 	c #DFB6B6",
"F 	c #E2C1C1",
"G 	c #E8D1D3",
"H 	c #EAD4D6",
"I 	c #E8CFD1",
"J 	c #D4ABAA",
"K 	c #D3A7A6",
"L 	c #D9B0B1",
"M 	c #DAB0B0",
"N 	c #D4A7A7",
"O 	c #D2A6A6",
"P 	c #E0B6B7",
"Q 	c #D8ADAD",
"R 	c #E6BFBF",
"S 	c #E2B9BA",
"T 	c #D2A7A7",
"U 	c #E5C8C8",
"V 	c #E9D3D4",
"W 	c #E8D0D2",
"X 	c #D6AFAF",
"Y 	c #E7C0BF",
"Z 	c #E1B8B8",
"` 	c #E1BABA",
" .	c #DAB2B2",
"..	c #DBB2B2",
"+.	c #D3A8A9",
"@.	c #DEB5B6",
"#.	c #E8C1C1",
"$.	c #D3A8A7",
"%.	c #E2BAB9",
"&.	c #E7CDCE",
"*.	c #EBD5D7",
"=.	c #DAB5B5",
"-.	c #D6ACAD",
";.	c #E7C0C0",
">.	c #DCB3B3",
",.	c #E0B9B9",
"'.	c #E3BDBC",
").	c #D3A7A8",
"!.	c #DFB5B6",
"~.	c #D7ADAE",
"{.	c #E3BBB9",
"].	c #E7CDCF",
"^.	c #DEB4B4",
"/.	c #D2A7A8",
"(.	c #D7ADAD",
"_.	c #E8C1C0",
":.	c #D3A8A8",
"<.	c #DAC2C3",
"[.	c #E7D3D4",
"}.	c #E9D4D6",
"|.	c #D6ADAD",
"1.	c #DFB9B9",
"2.	c #E2BAB8",
"3.	c #DCC3C4",
"4.	c #D0BEBF",
"5.	c #D0BFC0",
"6.	c #D4C1C2",
"7.	c #E5D0D1",
"8.	c #EBD4D6",
"9.	c #E9D4D5",
"0.	c #E9D3D5",
"a.	c #EAD5D7",
"b.	c #D9B5B4",
"c.	c #D6ADAC",
"d.	c #DCB5B4",
"e.	c #E9D2D4",
"f.	c #DAC6C8",
"g.	c #D1BFC0",
"h.	c #D7C4C5",
"i.	c #E8D2D4",
"j.	c #DDC9CA",
"k.	c #D1BFBF",
"l.	c #D5B0B0",
"m.	c #DFB8B9",
"n.	c #E8CECF",
"o.	c #DECACB",
"p.	c #CBBABB",
"q.	c #CFBEBE",
"r.	c #E3CED0",
"s.	c #EAD5D6",
"t.	c #DCC8C9",
"u.	c #CFBDBE",
"v.	c #CEBDBE",
"w.	c #E8D3D5",
"x.	c #D9C6C7",
"y.	c #D1BFC1",
"z.	c #CFBCBE",
"A.	c #DFCBCC",
"B.	c #D4A9A9",
"C.	c #C5B4B4",
"D.	c #CBB9B9",
"E.	c #DEC8CA",
"F.	c #D3C1C2",
"G.	c #D3C0C2",
"H.	c #E7D2D3",
"I.	c #D7C3C4",
"J.	c #D3C1C4",
"K.	c #D4CAD5",
"L.	c #C4BDD2",
"M.	c #C7C0D4",
"N.	c #D4CAD8",
"O.	c #E8D4D7",
"P.	c #ECD5D7",
"Q.	c #DBC7C8",
"R.	c #D3C0C1",
"S.	c #D6ABAB",
"T.	c #DEB5B5",
"U.	c #DFB9B8",
"V.	c #D9C6C6",
"W.	c #D9C5C6",
"X.	c #EBD4D7",
"Y.	c #E5D5DB",
"Z.	c #E7D2D7",
"`.	c #BCB8D4",
" +	c #BEBBD4",
".+	c #DFCCD4",
"++	c #E5D6DB",
"@+	c #E3CFD0",
"#+	c #D5C3C4",
"$+	c #D4B0AF",
"%+	c #E0B7B5",
"&+	c #E5D0D2",
"*+	c #D6C3C4",
"=+	c #D4C2C3",
"-+	c #DBD0D8",
";+	c #E6D2D7",
">+	c #E4D4DB",
",+	c #E1D2D8",
"'+	c #E3D2D7",
")+	c #D8CCD9",
"!+	c #DAB6B6",
"~+	c #D5ABAA",
"{+	c #E6C0C0",
"]+	c #E0B7B6",
"^+	c #E3BBB8",
"/+	c #D5BDBD",
"(+	c #E6D1D3",
"_+	c #C6BFD8",
":+	c #BFBCD6",
"<+	c #E7D8DD",
"[+	c #BFBAD4",
"}+	c #C7C1D6",
"|+	c #DFB8B8",
"1+	c #E0B8B9",
"2+	c #E0B8B6",
"3+	c #D8C9D4",
"4+	c #D6C6D3",
"5+	c #E8D7D9",
"6+	c #E8D6D8",
"7+	c #DBC9D5",
"8+	c #E0CDD5",
"9+	c #E6C0BF",
"0+	c #DEB7B6",
"a+	c #D4A7A8",
"b+	c #DBB0B1",
"c+	c #E8CED0",
"d+	c #D5A8A9",
"e+	c #D4A8A9",
"f+	c #DAB5B6",
"g+	c #D5AAAA",
"h+	c #D5A9AA",
"i+	c #DCCED6",
"j+	c #DDCFD6",
"k+	c #D9B4B4",
"l+	c #D5ABA9",
"m+	c #D6AAAA",
"n+	c #E2D1D7",
"o+	c #E9D4D7",
"p+	c #E8D4D6",
"q+	c #DECFD7",
"r+	c #DACDD7",
"s+	c #D8B4B4",
"t+	c #D5AAA9",
"u+	c #D5A9A9",
"v+	c #E9D5D7",
"w+	c #E1D0D7",
"x+	c #CFC8D8",
"y+	c #C5C4DA",
"z+	c #C8C5D9",
"A+	c #D6CCD7",
"B+	c #D8CCD7",
"C+	c #CCC7D8",
"D+	c #D9CCD8",
"E+	c #D6AAAB",
"F+	c #D4A9AA",
"G+	c #D2C3D1",
"H+	c #CAC5D9",
"I+	c #C5C3DA",
"J+	c #C5C3D9",
"K+	c #C6C4DA",
"L+	c #C7C5DA",
"M+	c #D8CDD7",
"N+	c #E4D2D6",
"O+	c #DFB7B8",
"P+	c #E1B9B7",
"Q+	c #D1C2D0",
"R+	c #C6C4D9",
"S+	c #D0C9D8",
"T+	c #E7D3D7",
"U+	c #D1C9D8",
"V+	c #C9C5D9",
"W+	c #D7ACAC",
"X+	c #E0B9B8",
"Y+	c #E1CBCE",
"Z+	c #E0D0D5",
"`+	c #D3C9D8",
" @	c #C7C4DA",
".@	c #CCC7D9",
"+@	c #C7C5D9",
"@@	c #DCCED8",
"#@	c #DDCFD7",
"$@	c #CAC6DA",
"%@	c #E4D2D7",
"&@	c #DDB5B4",
"*@	c #D4C5D0",
"=@	c #D4CBD8",
"-@	c #E1D0D6",
";@	c #E0D0D6",
">@	c #DFD0D7",
",@	c #D4CCD8",
"'@	c #C6C5D9",
")@	c #D0C9D9",
"!@	c #C9C6D9",
"~@	c #CDC7D8",
"{@	c #E4CCCE",
"]@	c #D6CBD8",
"^@	c #D7CCD9",
"/@	c #E1D1D6",
"(@	c #E7D4D6",
"_@	c #D2CAD8",
":@	c #C6C5DA",
"<@	c #CAC6D9",
"[@	c #E5D3D4",
"}@	c #E6D3D5",
"|@	c #E4D2D5",
"1@	c #CAC5D8",
"2@	c #E6D3D7",
"3@	c #E6CDCF",
"4@	c #EAD4D5",
"5@	c #CDC6D9",
"6@	c #D3CAD8",
"7@	c #E6D3D6",
"8@	c #E7D3D5",
"9@	c #E7D4D5",
"0@	c #E5D3D7",
"a@	c #D8B4B5",
"b@	c #DDB2B3",
"c@	c #E0B8B7",
"d@	c #D9C6CF",
"e@	c #D5CBD8",
"f@	c #E1D0D5",
"g@	c #CEC8D8",
"h@	c #CDC8D8",
"i@	c #C9C6D8",
"j@	c #C7C4D9",
"k@	c #D7CCD7",
"l@	c #E7D5D5",
"m@	c #E3D2D6",
"n@	c #E5D2D5",
"o@	c #D9CCD7",
"p@	c #D0B0B4",
"q@	c #E7C1C0",
"r@	c #E2BABB",
"s@	c #D2A6A5",
"t@	c #E1B9B8",
"u@	c #CCC1D2",
"v@	c #CFC9D8",
"w@	c #DACDD6",
"x@	c #DBCED8",
"y@	c #E5D2D6",
"z@	c #E6D4D6",
"A@	c #E0D1D7",
"B@	c #D9CDD7",
"C@	c #DFD0D5",
"D@	c #D6ADAB",
"E@	c #CAC7D9",
"F@	c #E0D1D6",
"G@	c #D7CCD8",
"H@	c #CBC6D9",
"I@	c #E9D5D6",
"J@	c #CBC7D9",
"K@	c #D2B1B4",
"L@	c #DFB6B5",
"M@	c #D1A4A5",
"N@	c #DDC9CF",
"O@	c #D1C9D9",
"P@	c #D2C9D7",
"Q@	c #E5D3D5",
"R@	c #DED0D6",
"S@	c #E8D4D4",
"T@	c #CFAFB4",
"U@	c #D5AAAB",
"V@	c #D7AEAD",
"W@	c #D1A3A4",
"X@	c #E5CCCF",
"Y@	c #DACED7",
"Z@	c #CBC7D8",
"`@	c #D5CBD7",
" #	c #D8CDD8",
".#	c #C8C4D9",
"+#	c #C6C3D9",
"@#	c #E8D5D5",
"##	c #E8D4D5",
"$#	c #E2D1D6",
"%#	c #CFAFB5",
"&#	c #D1A4A4",
"*#	c #D9C6D0",
"=#	c #D8CCD8",
"-#	c #C8C6D9",
";#	c #CEC8D7",
">#	c #DACDD8",
",#	c #C4C4D9",
"'#	c #DCCED7",
")#	c #E3D2D5",
"!#	c #D1CAD8",
"~#	c #C5C4D9",
"{#	c #C6C4DB",
"]#	c #D6ACAA",
"^#	c #E8C2C1",
"/#	c #DAB1B0",
"(#	c #DEB6B4",
"_#	c #CCC0D0",
":#	c #E2D1D5",
"<#	c #E6D4D5",
"[#	c #DCCFD7",
"}#	c #DFB5B4",
"|#	c #CCC1D1",
"1#	c #D7CBD6",
"2#	c #E2CFD4",
"3#	c #E3D1D4",
"4#	c #E2D0D5",
"5#	c #E6D2D4",
"6#	c #DBCDD6",
"7#	c #D0AFB6",
"8#	c #D0A3A4",
"9#	c #E5BFBE",
"0#	c #CFB2B9",
"a#	c #C7C1D5",
"b#	c #D1C8D8",
"c#	c #D8CBD6",
"d#	c #E3CFD3",
"e#	c #DDCDD5",
"f#	c #E4D0D3",
"g#	c #D4C9D6",
"h#	c #CEBCCA",
"i#	c #DAB3B5",
"j#	c #D9AFB0",
"k#	c #D2A5A5",
"l#	c #D2AEB3",
"m#	c #C9C2D6",
"n#	c #C8C2D7",
"o#	c #C8C2D6",
"p#	c #D1C6D4",
"q#	c #DFCCD2",
"r#	c #E3CED2",
"s#	c #E1CDD2",
"t#	c #E1CCD1",
"u#	c #DABCC0",
"v#	c #E0B7B8",
"w#	c #D7ADAB",
"x#	c #DFB7B5",
"y#	c #D9AFAD",
"z#	c #DAAFAF",
"A#	c #D1A5A4",
"B#	c #DBB2B3",
"C#	c #D5AAA8",
"D#	c #D8AEAD",
"E#	c #DAAFB0",
"F#	c #DFB8B7",
"G#	c #DEB7B7",
"H#	c #D4AAAA",
"I#	c #DBB3B3",
"J#	c #E9C4C3",
"K#	c #D3A6A6",
"L#	c #EAC4C3",
"M#	c #D2A5A6",
"N#	c #E5BDBD",
"O#	c #EAC5C4",
"P#	c #D9AEAE",
"Q#	c #D8ADAE",
"R#	c #EAC5C3",
"S#	c #E4BDBC",
"  . .     .                                                                                     . . . . . . . .           + @   ",
"      .     . . . #   $ % &         .   %   * $ = $ $ $ $ * $ $ $ $ = # $ # $ $ # $ % .   .         . - $ ; $ % % . .   . + > $ ",
"    $     , ' ) ! ~ ! { ] ^ / $     ' ! ( _ : < < ! < [ ! ! ! } : < < ! : ! < : < | 1 2 3 .     4 5 6 ' ! | | ) 7 , _   .   $ $ ",
"8   $     9 0 /   . % a b c d $     e f ^ g h i j k l m m j m n o p q q r p o r o s t u 6 .     ! v w g _ % ! x y z .     $ $ $ ",
"  $ $   . A B % .     % ] C ^ $   D ( E % F G H H H H H H H H H H H H H H H H H H I J K ] .     d L % g . . . M N e -   $ $ $ $ ",
"8   *     O P %       . _ | Q R   S T * U V H H H H H H H H H H H H H H H H H H H H W X Q Y     e c Z .     ` %  ...=   $ $ $ $ ",
"    $     +.@.4 .       ` ..6 #.$   $.%.&.H H H H H H H H H H H H H H H H H H H H *.*.=.-.;.    ] >.  &     @ ,.[ ! '.` $ $ $ $ ",
"    *     ).!.4   .   .   ' ~.#.    $.{.].H H H H H H H H H H H H H H H H H H H *.*.*.=.-.;.    ] 7         @ ,.[ ^.'.> $ $ $ $ ",
"    *     /.E 4 .       . / (._.$ . :.{.<.[.}.H H *.*.*.*.*.H H H *.*.*.*.*.*.*.*.*.*.=.|.;.    d 7     . . @ 1.} ^.'.$ $ $ $ $ ",
"    $     T E 4       .   ..Q ;.  . :.2.3.4.5.6.7.H 8.9.H H H 0.H *.H H *.*.*.H *.a.*.b.c.Y     ] 7       . @ 1.d.^.'.$ $ $ $ $ ",
"    $     $.E 4         . / (.;.  S $.%.&.H *.e.f.g.4.h.i.0.0.0.H *.*.H *.*.0.H j.6.k.l.A Y     ] >.& + @ @ m.m.d.^.'.  $ $ $ $ ",
"$   $     $.E E         . / (._.    :.%.n.*.*.*.*.H 0.o.p.q.g.r.H s.*.*.8.t.u.v.j.0.*.=.A Y     ] c . + 1.@ m.1.d.7 =   $ $ $ $ ",
"$ $ $     :.!.E           >.(._.    :.%.n.*.*.*.*.H H 0.0.H w.x.g.y.z.g.6.A.i.H 0.0.*.=.A Y     3 ! . ` `   ` . < 7 ; @ > $ $ $ ",
"$ $ $     B.!.4           >.c._.    :.{.n.*.*.*.*.H H H H *.[.h.C.D.E.F.G.5.A.H.8.H *.=.A Y     3 ~ %           : 7 > @ ` $ $ $ ",
"$ $ $     B.!.4           | 9 _.    :.{.n.*.*.*.*.H H i.I.4.J.K.L.M.N.O.P.w.Q.R.6.f.0.=.S.;.  . 3 ~ %           T.7 = U.; $ $ $ ",
"$ $ $     x E E           | c._.    :.{.].*.*.*.H.V.F.W.i.X.Y.Z.`. +.+++*.*.*.H H @+#+$+S.;.  . 3 ~ % . .       T.7 = U.$ $ $ $ ",
"$ $ $     x %+B           | c._.    :.{.&.&+*+=+h.0.*.*.*.*.-+;+>+,+'+)+*.*.*.*.*.*.*.!+~+{+  . L ~ %           T.7 $ @ $ $ $ $ ",
"$ $ $     :.]+B           | c._.    :.^+/+*+(+X.*.*.*.*.*.a._+:+<+Y.[+}+*.*.*.*.*.*.*.!+~+{+  . 3 T.|+. 1+%.    T.7 $ 1.$ $ $ $ ",
"$ $ $ $   ).2+B           | c._.    :.{.].*.*.*.*.*.*.*.*.a.3+4+5+6+7+8+*.*.*.*.*.*.*.!+J 9+  . 3 0+. . . %.    T.7 $ m.> $ $ $ ",
"$ $ $ $   a+2+B           | c._.    b {.n.*.*.*.*.*.*.*.*.*.*.*.*.*.*.*.*.*.*.*.*.*.*.!+J 9+  . b+0+,.,.. %.    T.7 = m.  $ $ $ ",
"$ $ $ $   a+2+B           7 v _.    b {.c+*.*.*.*.*.*.*.*.*.*.*.*.*.*.*.*.*.*.*.*.*.*.!+J 9+  . b+0+@ ,.1+%.    T.7 = m.p $ $ $ ",
"$ $ $ $   a+2+B           ! v _.    b {.c+*.*.*.*.*.*.*.*.*.*.*.*.*.*.*.*.*.*.*.*.*.*.!+J 9+  . b+B @ ,.. %.    T.7 = m.p $ $ $ ",
"$ $ $ $   d+- _           ! v _.    e+> c+*.*.*.*.*.X.*.*.*.*.*.*.*.*.*.*.*.*.*.*.*.*.f+J 9+  . 3 _ |+,..       T.7 = m.p $ $ $ ",
"$ $ $ $   g+P 4           ! v _.    h+` c+*.*.*.*.*.i+j+*.*.*.*.*.*.*.*.*.*.*.*.*.*.*.k+l+9+  . 3 B |+@         T.7 = m.,.$ $ $ ",
"$ $ $ $   m+- 4           ! v _.    h+` c+*.*.X.n+o+p+q+r+*.*.*.*.*.*.*.*.*.*.*.*.*.*.s+t+9+    d E % +         T.7 = m.m.$ $ $ ",
"$ $ $ $   u+- 4           ! v _.    h+` n.v+w+x+y+z+A+B+C+D+*.*.*.*.*.*.*.*.*.*.*.*.*.s+t+9+    ] ^.%   .       T.7 = m.m.  $ $ ",
"$ $ $ $   E+- 4           ! v _.    F+  G+H+I+J+K+K+J+L+M+N+*.*.*.*.a.*.*.*.*.*.*.*.*.s+t+9+    ] ! % . .       T.7 = m.m.O+$ $ ",
"$ $ $ $   ( - 4           7 c.;.    :.P+Q+R+y+K+K+J+K+K+K+S+H *.T+U+V+S+o+*.*.*.*.*.*.s+t+{+    ] ! %           T.7 = % % . $ $ ",
"$ $ $ $   W+E 4           | c._.    :.X+Y+Z+`+ @K+.@y+J+K++@@@#@$@R+K+y+%@*.*.*.*.*.*.s+t+{+    ..&@%           T.7 $ % %   $ $ ",
"$ $ $ $   g+E 4           | c._.    :.X+*@=@-@;@>@p+,@K+'@L+V+)@z+!@!@z+~@n+*.*.*.*.*.s+t+{+    ..T.%           T.7 $ % % $ $ $ ",
"$ $ $     :.E 4           | c._.    :.+ {@j+]@^@/@(@(@_@:@K+<@[@}@|@j+|@i+1@2@*.*.*.*.s+t+{+    ..! %           T.7 $ % . $ $ $ ",
"$ $ $ $   :.E B           | c._.    :.+ 3@4@N+5@L+6@#@7@x+K+R+;@w.}@8@9@8@0@|@}.*.*.a.a@t+9+    ..! %           T.b@$ % . $ $ $ ",
"$ $ $ $   :.]+c@          | c._.  S ).X+d@e@f@g@y+K+y+h@i@j@K+ @k@7@l@}@#@m@}@n@s.H o@p@0 q@    ..! %           T.' $ %   $ $ $ ",
"$ $ $ $   e+c@c@          | c._.  r@s@t@u@K+K+K+:@v@w@U+z+:@K+K+K+<@x@y@9@%@z@A@B@C@y@k+S.;.    ..! %           T.] $ . $ $ $ $ ",
"$ $ $ $   h+]+c@          7 D@_.  r@O t@u@y+K+K+L+E@S+F@F@G@H@K+K+K+K+_@N+%@9@I@%@v@J@K@0 ;.    ] ! %           T.] $   $ $ $ $ ",
"$ $ $ $   S.L@c@          5 9 q@  r@M@X+N@O@+@K++@!@+@K+=@9@(@P@K+K+K+~@Q@j+R@S@}@_@L+T@0 ;.    ] ! %           T.] $ $ $ $ $ $ ",
"$ $ $ $   U@L@]+          ] V@;.    W@X+X@9@;@Y@J@!@'@L+Z@`@ #q+.#y++#y+;@@#9@##$#$@:@%#S.q@    ] ! %           T.] $ $ $ $ $ $ ",
"$ $ $ $   B.L@]+          ] V@_.    &#+ *#=#-#;#M+B@v@>#,#K+K+'#)#!#~#K+r+}@n@p+r+R+{#%#]#^#$   /#>.%           [ ] $ $ $ $ $ $ ",
"$ $ $ $   :.(#]+          ] V@_.  $ &#+ _#K+:@z+L+<@-#!@K+K+K+.@M+}@o@ @<@:###<#[#K+y+%#]#^#$   /#>.%           >.d $ $ $ $ $ $ ",
"$ $ $ $   b }#c@        ; d (._.  $ W@+ |#K+K+K+K+K+K+K+K+K+K+K+z+1#2#3#k@g@4#5#6#K+K+7#]#^#    M >.D           >.] = $ $ $ $ $ ",
"$ $ $ $   O & T..       _ % e R $   8#9#0#a#K+j@K+K+K+K+K+K+K+K+K+L+b#c#d#2#e#d#f#g#h#i#(.R     ) ! 4 @.      _ ! j#  $ $ $ $ $ ",
"$ $ $   . k#Q E >.. S _ !.d ..Z $ . b 9 a l#m#m#n#n#n#o#n#n#n#n#n#n#n#m#p#q#r#s#t#u#^.d .._     S.W+] ~ 4 & v#! 6 ] ! > $ $ $ $ ",
"$ $ $     1 w#s@x#>.! < ( 6 y#$     z#v k#` ^ [ [ [ [ [ [ [ [ [ [ [ [ >./ / } >.>.T.~+1 U@.     T.~+A#..! B#>.Q 2 A :   $ $ $ $ ",
"$ $ =     M 6 C#D#! ~ : / Q y *     E#, w#3 4 _ |+|+|+|+|+|+F#_ _ _ _ G#4 4 &@! &@: u w#6 *     ' j#H#t+! &@} ..M y     . $ $ $ ",
"$                       .               .                                           .             . . .       Z .       . . $ $ ",
"                                                                                                                        . % . $ ",
"v#v#v#v#v#v#v#v#v#_ _ _ _ - % % % % % % % % % % % % - % % % % % v#v#% % v#v#v#% % - v#- - - - - - - - - - _ E _ _ _ _ _ g E E 4 ",
"................/ >.>.>.>.>.>.[ [ >.>.[ >.>.>.[ >.>.I#[ [ >.>.[ >.I#>.[ >.>.B#I#>.I#B#, , , , , , , , , , ....^ d d d d d d d M ",
"                                                                                                              . % % % % % % % _ ",
"$         .                           $ $ $ $ $ $ $ $ $ $ $ $ $ $ $ $ $ $ $                                 . . . .   % % % %   ",
"$ $       ! $ T.! [ [ [ [ [ [ [ [ [ [ | | | | | | | | | | | | | | | | | | | [ [ >.B#B#B#B#B#B#B#, { { { { { ../ ' B.0 % % .   $ ",
"$ $ $     ! J#= $                                                                                               + K#b .   $ $ $ ",
"$ $ $ $   ! L## b+$ $ $ $ $ $ $ $ $ $ $ $ $ $ $ $ $ $ $ $ $ $ $                                                 * M#:.    $ $ $ ",
"$ $ $ $   ! L#= Q $ $ $ $ $ $ $ $ $ $ $ $ $ $ $ $ $ $ $ $ $ $ $ $                                               N#M#:.  $ $ $ $ ",
"$ $ $ $ $ ! L#= Q $ $ $ $ $ $ $ $ $ $ $ $ $ $ $ $ $ $ $ $ $ $ $ $                                               N#M#:.  $ $ $ $ ",
"$ $ $ $ $ T.O#* P#$ $ $ $ $ $ $ $ $ $ $ $ $ $ $ $ $ $ $ $ $ $ $ $ $ $ $ $ $                                     N#M#:.  $ $ $ $ ",
"$ $ $ $ $ T.O#* Q#$ $ $ $ $ $ $ $ $ $ $ $ $ $ $ $ $ $ $ $ $ $ $ $ $ $ $ $ $                                     N#M#:.  $ $ $ $ ",
"$ $ $ $ $ T.O#* Q#$ $ $ $ $ $ $ $ $ $ $ $ $ $ $ $ $ $ $ $ $ $ $ $ $ $ $ $ $ $ $ $ $ $                           N#M#:.  $ $ $ $ ",
"$ $ $ $ $ T.O#*   $ $ $ $ $ $ $ $ $ $ $ $ $ $ $ $ $ $ $ $ $ $ $ $ $ $ $ $ $ $                             . .   > O :.  $ $ $ $ ",
"$ $ $ $ $ T.R#* # # # # $ * S#S#S#S#S#S#S#S#S#S#S#S#S#S#S#S#S#S#* = * # # # # $ $ $ $ $ $ $ $ $ $ $ $             b :.  $ $ $ $ ",
"$ $ $ $ $ 4 $                                                                   ` ` ` ` ` ` ` ` ` `       ` ` ` ` % <   $ $ $ $ ",
"$ $ $ $ $ $ $ $ $ $ $ $ $ * * * * * * * * * * * * * * * * * * * * * * * * * $ $ $ $ $ $ $ $ $ $ $ $ $ $ $               $ $ $ $ ",
"$ $ $ $ $ $ $ $ $ $ $ $ $ * * * * * * * * * * * * * * * * * * * * * * * * * $ $ $ $ $ $ $ $ $ $ $ $ $ $ $                 $ $ $ ",
"$ $ $ $ $ * * # # * * # # * * * * * * * * * * * * * * * * * * * * * * * * * $ $ $ $ $ $ $ $ $ $ $ $ $ $ $ $ $ $ $ $         $ $ "};
