/* XPM */
static char *carpet1694887819[] = {
/* columns rows colors chars-per-pixel */
"32 32 3 1 ",
"  c #E34C4C",
". c #E66F6F",
"X c #F59090",
/* pixels */
"             X....X             ",
"              X..X              ",
"               XX               ",
"            .      .            ",
"           .        .           ",
"             .    .             ",
"         .  .      .  .         ",
"        .  .        .  .        ",
"       .  .          .  .       ",
"      .                  .      ",
"        .              .        ",
"    .  .                .  .    ",
"   .  .                  .  .   ",
"X    .                    .    X",
".X                            X.",
"..X                          X..",
"..X                          X..",
".X                            X.",
"X    .                    .    X",
"   .  .                  .  .   ",
"    .  .                .  .    ",
"        .              .        ",
"      .                  .      ",
"       .  .          .  .       ",
"        .  .        .  .        ",
"         .  .      .  .         ",
"             .    .             ",
"           .        .           ",
"            .      .            ",
"               XX               ",
"              X..X              ",
"             X....X             "
};
